<svg id="Layer_2" data-name="Layer 2" xmlns="http://www.w3.org/2000/svg" viewBox="0 0 656.609 720.356" style="width: 100%; height: 100%;">
  <g id="Layer_2-2" data-name="Layer 2">
    <g>
      <circle cx="328.305" cy="392.051" r="328.305" fill="#560090" opacity=".1"></circle>
      <g>
        <path d="m219.864,185.827c-.199,0-.401-.06-.577-.185-.45-.319-.557-.943-.237-1.394.185-.262,18.258-26.39-1.918-50.209-8.278-9.773-19.477-13.517-29.096-13.517-.089,0-.179,0-.267,0,1.916,6.656,1.574,12.574-1.139,17.114-2.564,4.292-7.14,6.814-11.681,6.42-4.003-.346-7.166-2.807-8.679-6.752-2.219-5.788.104-11.402,6.212-15.017,3.271-1.936,7.666-3.244,12.589-3.62-1.253-3.44-3.114-7.079-5.565-10.821-7.285-11.126-20.562-18.828-36.429-21.131-13.445-1.952-26.331.347-32.832,5.853-.424.358-1.055.303-1.409-.117-.357-.421-.305-1.053.116-1.41,6.919-5.86,20.426-8.336,34.412-6.305,16.434,2.385,30.216,10.409,37.815,22.014,2.667,4.073,4.663,8.048,5.968,11.815,10.346-.242,22.568,3.625,31.509,14.18,21.193,25.02,2.218,52.386,2.023,52.659-.195.274-.503.421-.816.421Zm-34.147-65.23c-4.785.305-9.06,1.546-12.215,3.414-5.276,3.123-7.23,7.708-5.363,12.58,1.228,3.202,3.773,5.198,6.984,5.476,3.761.325,7.616-1.815,9.791-5.454,2.492-4.17,2.721-9.713.803-16.016Z" fill="#292a2e"></path>
        <g>
          <path d="m92.985,108.695c-1.484.446-3.064.373-4.519-.222-1.68-.688-2.993-1.988-3.695-3.663s-.711-3.523-.024-5.204c.688-1.68,1.988-2.993,3.663-3.696,3.451-1.446,7.45.182,8.899,3.639,1.45,3.458-.183,7.45-3.64,8.9-.225.094-.453.176-.684.246Zm-3.325-11.112c-.161.048-.32.105-.478.172-1.182.496-2.1,1.422-2.585,2.608-.485,1.187-.479,2.491.016,3.673.496,1.182,1.423,2.1,2.609,2.585,1.186.485,2.489.48,3.672-.017,2.44-1.023,3.593-3.841,2.57-6.282-.958-2.282-3.486-3.437-5.805-2.74Z" fill="#292a2e"></path>
          <path d="m92.972,93.022c-1.485.447-3.065.373-4.52-.222-1.681-.687-2.994-1.988-3.695-3.663h0c-.703-1.675-.712-3.522-.024-5.203s1.988-2.994,3.664-3.697c1.672-.699,3.523-.71,5.203-.023,1.681.687,2.994,1.988,3.695,3.663.703,1.674.712,3.522.024,5.203-.687,1.681-1.988,2.994-3.664,3.697-.225.094-.453.176-.683.245Zm-3.321-11.114c-.163.049-.323.106-.482.173-1.182.496-2.1,1.422-2.586,2.608-.484,1.186-.479,2.491.017,3.673h0c.496,1.182,1.422,2.101,2.609,2.585,1.186.485,2.483.481,3.673-.016,1.182-.496,2.1-1.422,2.586-2.608.484-1.186.479-2.491-.017-3.673-.496-1.182-1.422-2.101-2.609-2.585-1.027-.42-2.142-.472-3.19-.157Z" fill="#292a2e"></path>
          <ellipse cx="91.032" cy="94.155" rx="8.892" ry="5.939" fill="#fff"></ellipse>
          <path d="m94.965,100.53c-1.223.368-2.555.562-3.927.563-5.547.005-9.895-3.04-9.898-6.931-.003-3.892,4.339-6.942,9.885-6.948,2.571-.002,5.002.673,6.845,1.902,1.967,1.311,3.051,3.097,3.053,5.028.002,1.931-1.079,3.719-3.044,5.034-.858.574-1.845,1.029-2.914,1.35Zm-7.26-10.836c-2.672.804-4.566,2.527-4.565,4.466.002,2.677,3.617,4.936,7.895,4.933,2.181-.002,4.217-.562,5.731-1.576,1.391-.931,2.157-2.128,2.156-3.369-.001-1.242-.769-2.437-2.162-3.366-1.518-1.012-3.554-1.568-5.733-1.566-1.179,0-2.307.173-3.322.479Z" fill="#292a2e"></path>
          <polygon points="93.213 99.912 93.003 88.363 90.131 88.246 89.93 100.047 93.213 99.912" fill="#292a2e"></polygon>
          <circle cx="79.235" cy="95.749" r=".918" fill="#292a2e"></circle>
          <circle cx="79.952" cy="90.837" r=".918" fill="#292a2e"></circle>
        </g>
      </g>
      <g>
        <path d="m384.645,132.766c-.429,0-.824-.276-.956-.707-.055-.178-5.395-17.964-2.606-38.021,2.585-18.598,12.843-43.011,47.03-53.701,5.562-1.739,10.451-2.814,14.748-3.381,1.61-10.061,7.739-20.975,21.443-28.505,32.562-17.892,54.558-1.839,54.775-1.675.44.332.529.958.198,1.399-.331.442-.957.53-1.4.2-.208-.156-21.228-15.417-52.61,1.829-12.807,7.037-18.669,17.137-20.336,26.513,15.079-1.485,22.302,3.545,25.541,7.345,4.122,4.833,5.031,11.481,2.316,16.938-2.301,4.626-6.732,7.219-11.835,6.909-8.421-.494-15.39-7.578-17.752-18.048-.735-3.261-1-6.946-.614-10.804-4.294.585-8.941,1.647-13.877,3.19-26.645,8.332-42.003,25.85-45.647,52.067-2.728,19.624,2.485,36.987,2.538,37.16.162.528-.136,1.088-.663,1.249-.098.03-.196.044-.293.044Zm59.981-93.955c-.433,3.792-.193,7.417.526,10.609,2.161,9.578,8.409,16.051,15.918,16.492,4.273.244,7.994-1.918,9.928-5.804,2.356-4.738,1.553-10.527-2.048-14.75-4.676-5.483-13.209-7.699-24.324-6.548Z" fill="#292a2e"></path>
        <g>
          <path d="m542.374,16.884c-1.354,0-2.682-.387-3.848-1.137-1.604-1.032-2.711-2.626-3.116-4.49-.835-3.847,1.615-7.658,5.463-8.494,3.849-.836,7.657,1.615,8.494,5.462h0c.835,3.848-1.615,7.658-5.464,8.494-.508.111-1.021.165-1.529.165Zm.015-12.285c-.36,0-.726.039-1.092.118-2.77.602-4.533,3.345-3.932,6.115.291,1.342,1.088,2.49,2.242,3.233,1.155.743,2.532.993,3.872.7,2.77-.602,4.534-3.345,3.933-6.115-.522-2.404-2.658-4.051-5.023-4.051Z" fill="#292a2e"></path>
          <path d="m539.362,33.205c-1.354,0-2.683-.387-3.849-1.137-1.604-1.032-2.71-2.626-3.115-4.49-.404-1.864-.06-3.774.973-5.378,1.031-1.604,2.626-2.71,4.49-3.115,1.862-.406,3.773-.06,5.378.972,1.604,1.032,2.71,2.626,3.115,4.49.404,1.864.06,3.774-.973,5.378-1.031,1.604-2.626,2.71-4.49,3.115-.509.111-1.021.165-1.529.165Zm.025-12.285c-.367,0-.735.039-1.103.119-1.342.292-2.489,1.088-3.232,2.243-.742,1.155-.991,2.53-.699,3.872.291,1.342,1.088,2.49,2.242,3.233,1.156.744,2.531.992,3.872.7,1.342-.292,2.489-1.088,3.232-2.243.742-1.155.991-2.53.699-3.872-.291-1.342-1.088-2.49-2.242-3.233-.84-.54-1.795-.818-2.77-.818Z" fill="#292a2e"></path>
          <ellipse cx="540.846" cy="18.098" rx="6.289" ry="9.416" transform="translate(424.901 546.68) rotate(-79.545)" fill="#fff"></ellipse>
          <path d="m542.224,25.516c-.885,0-1.791-.083-2.7-.25-2.666-.492-5.056-1.659-6.729-3.286-1.781-1.731-2.56-3.781-2.191-5.772.367-1.991,1.826-3.628,4.107-4.61,2.143-.923,4.79-1.159,7.458-.668,2.666.492,5.056,1.659,6.729,3.286,1.781,1.731,2.56,3.781,2.191,5.772-.367,1.991-1.826,3.628-4.107,4.61-1.413.608-3.046.918-4.758.918Zm-2.762-12.838c-1.438,0-2.796.256-3.961.757-1.647.709-2.688,1.823-2.931,3.136-.242,1.313.332,2.725,1.618,3.975,1.394,1.354,3.417,2.333,5.698,2.753,2.28.419,4.52.229,6.305-.538,1.647-.709,2.688-1.823,2.931-3.136h0c.242-1.313-.332-2.725-1.618-3.976-1.394-1.354-3.417-2.332-5.698-2.753-.792-.146-1.579-.219-2.344-.219Z" fill="#292a2e"></path>
          <polygon points="539.688 11.682 537.677 23.748 540.644 24.424 543.132 12.175 539.688 11.682" fill="#292a2e"></polygon>
          <circle cx="551.743" cy="23.691" r=".972" fill="#292a2e"></circle>
          <circle cx="553.437" cy="18.715" r=".972" fill="#292a2e"></circle>
        </g>
      </g>
      <g>
        <path d="m555.459,200.303v373.496c0,8.875-7.194,16.069-16.069,16.069H67.219c-8.875,0-16.069-7.194-16.069-16.069v-300.579c0-8.875,7.194-16.069,16.069-16.069h283.217c8.875,0,16.069-7.194,16.069-16.069v-40.779c0-8.875,7.194-16.069,16.069-16.069h156.816c8.875,0,16.069,7.194,16.069,16.069Z" fill="#560090"></path>
        <path d="m539.39,590.868H67.22c-9.412,0-17.069-7.657-17.069-17.069v-300.579c0-9.412,7.657-17.069,17.069-17.069h283.217c8.31,0,15.069-6.76,15.069-15.069v-40.779c0-9.412,7.657-17.069,17.068-17.069h156.815c9.412,0,17.069,7.657,17.069,17.069v373.496c0,9.412-7.657,17.069-17.069,17.069ZM67.22,258.152c-8.31,0-15.069,6.76-15.069,15.069v300.579c0,8.309,6.76,15.069,15.069,15.069h472.17c8.31,0,15.069-6.76,15.069-15.069V200.303c0-8.309-6.76-15.069-15.069-15.069h-156.815c-8.309,0-15.068,6.76-15.068,15.069v40.779c0,9.412-7.657,17.069-17.069,17.069H67.22Z" fill="#262626"></path>
        <g>
          <path d="m585.459,200.303v373.496c0,8.875-7.194,16.069-16.069,16.069H97.219c-8.875,0-16.069-7.194-16.069-16.069v-300.579c0-8.875,7.194-16.069,16.069-16.069h283.217c8.875,0,16.069-7.194,16.069-16.069v-40.779c0-8.875,7.194-16.069,16.069-16.069h156.816c8.875,0,16.069,7.194,16.069,16.069Z" fill="#fff"></path>
          <path d="m569.39,590.868H97.22c-9.412,0-17.069-7.657-17.069-17.069v-300.579c0-9.412,7.657-17.069,17.069-17.069h283.217c8.31,0,15.069-6.76,15.069-15.069v-40.779c0-9.412,7.657-17.069,17.068-17.069h156.815c9.412,0,17.069,7.657,17.069,17.069v373.496c0,9.412-7.657,17.069-17.069,17.069ZM97.22,258.152c-8.31,0-15.069,6.76-15.069,15.069v300.579c0,8.309,6.76,15.069,15.069,15.069h472.17c8.31,0,15.069-6.76,15.069-15.069V200.303c0-8.309-6.76-15.069-15.069-15.069h-156.815c-8.309,0-15.068,6.76-15.068,15.069v40.779c0,9.412-7.657,17.069-17.069,17.069H97.22Z" fill="#262626"></path>
        </g>
        <g>
          <g>
            <circle cx="295.206" cy="377.612" r="11.112" fill="#292a2e"></circle>
            <circle cx="371.403" cy="377.612" r="11.112" fill="#292a2e"></circle>
          </g>
          <rect x="318.406" y="406.602" width="29.797" height="2" fill="#262626"></rect>
        </g>
        <g fill="none" opacity=".1">
          <ellipse cx="283.743" cy="404.181" rx="9.913" ry="5.217" fill="#560090"></ellipse>
          <ellipse cx="382.867" cy="404.181" rx="9.913" ry="5.217" fill="#560090"></ellipse>
        </g>
      </g>
    </g>
  </g>
</svg>