<svg id="visual" viewBox="0 0 900 600" width="900" height="600" xmlns="http://www.w3.org/2000/svg" xmlns:xlink="http://www.w3.org/1999/xlink" version="1.1"><rect x="0" y="0" width="900" height="600" fill="#140021"></rect><path d="M0 298L129 298L129 282L257 282L257 289L386 289L386 334L514 334L514 264L643 264L643 251L771 251L771 303L900 303L900 351L900 601L900 601L771 601L771 601L643 601L643 601L514 601L514 601L386 601L386 601L257 601L257 601L129 601L129 601L0 601Z" fill="#9900ff"></path><path d="M0 364L129 364L129 417L257 417L257 415L386 415L386 459L514 459L514 349L643 349L643 435L771 435L771 358L900 358L900 374L900 601L900 601L771 601L771 601L643 601L643 601L514 601L514 601L386 601L386 601L257 601L257 601L129 601L129 601L0 601Z" fill="#7700c6"></path><path d="M0 529L129 529L129 502L257 502L257 478L386 478L386 512L514 512L514 498L643 498L643 473L771 473L771 455L900 455L900 535L900 601L900 601L771 601L771 601L643 601L643 601L514 601L514 601L386 601L386 601L257 601L257 601L129 601L129 601L0 601Z" fill="#560090"></path></svg>